<?xml version="1.0" encoding="utf-8"?>
<!-- Generator: Adobe Illustrator 16.0.0, SVG Export Plug-In . SVG Version: 6.00 Build 0)  -->
<!DOCTYPE svg PUBLIC "-//W3C//DTD SVG 1.1//EN" "http://www.w3.org/Graphics/SVG/1.1/DTD/svg11.dtd">
<svg version="1.1" xmlns="http://www.w3.org/2000/svg" xmlns:xlink="http://www.w3.org/1999/xlink" x="0px" y="0px"
	 width="1417.32px" height="1417.32px" viewBox="0 0 1417.32 1417.32" enable-background="new 0 0 1417.32 1417.32"
	 xml:space="preserve">
<g id="Layer_2">
	<g>
		<polygon points="560.551,1226.881 301.151,1077.116 151.388,817.716 151.388,518.186 301.151,258.787 560.551,109.021 
			860.08,109.021 1119.481,258.787 1269.246,518.186 1269.246,817.716 1119.481,1077.116 860.08,1226.881 		"/>
		<path fill="#FFFFFF" d="M857.937,117.021l255.688,147.622l147.621,255.686v295.243l-147.621,255.688l-255.688,147.621H562.695
			L307.007,1071.26l-147.62-255.688V520.33l147.62-255.687l255.688-147.622H857.937 M862.224,101.021H558.408L295.294,252.93
			L143.388,516.042v303.817l151.907,263.113l263.113,151.908h303.816l263.114-151.908l151.908-263.113V516.042l-151.908-263.112
			L862.224,101.021L862.224,101.021z"/>
	</g>
</g>
<g id="Layer_4">
	<g>
		<polygon points="676.782,792.538 619.274,759.161 586.063,701.34 586.063,634.567 619.274,576.747 676.782,543.368 
			743.184,543.368 800.693,576.747 833.901,634.567 833.901,701.34 800.693,759.161 743.185,792.538 		"/>
		<path fill="#FFFFFF" d="M742.384,546.341l56.128,32.577l32.417,56.442v65.187l-32.417,56.442l-56.128,32.576h-64.801
			l-56.127-32.576l-32.418-56.442V635.36l32.418-56.442l56.127-32.577H742.384 M743.984,540.395h-68.002l-58.89,34.18
			l-34.002,59.199v68.359l34.002,59.2l58.89,34.179h68.002l58.891-34.179l34-59.2v-68.359l-34-59.199L743.984,540.395
			L743.984,540.395z"/>
	</g>
</g>
<g id="Layer_3">
	<g>
		<g>
			<path opacity="0.5" d="M623.137,665.491"/>
			<path fill="none" stroke="#FFFFFF" stroke-width="6" stroke-miterlimit="10" d="M623.137,665.491"/>
		</g>
		<g>
			<path opacity="0.5" d="M714.761,575.794"/>
			<path fill="none" stroke="#FFFFFF" stroke-width="6" stroke-miterlimit="10" d="M714.761,575.794"/>
		</g>
		<g>
			<path opacity="0.5" d="M800.164,665.491"/>
			<path fill="none" stroke="#FFFFFF" stroke-width="6" stroke-miterlimit="10" d="M800.164,665.491"/>
		</g>
		<g>
			<path opacity="0.5" d="M710.833,575.565"/>
			<path fill="none" stroke="#FFFFFF" stroke-width="6" stroke-miterlimit="10" d="M710.833,575.565"/>
		</g>
		<path d="M709.287,666.563"/>
		<g>
			<path opacity="0.5" d="M672.323,736.135"/>
			<path fill="none" stroke="#FFFFFF" stroke-width="6" stroke-miterlimit="10" d="M672.323,736.135"/>
		</g>
		<g>
			<path opacity="0.5" d="M712.128,736.135"/>
			<path fill="none" stroke="#FFFFFF" stroke-width="6" stroke-miterlimit="10" d="M712.128,736.135"/>
		</g>
		<g>
			<path opacity="0.5" d="M712.561,737.184"/>
			<path fill="none" stroke="#FFFFFF" stroke-width="6" stroke-miterlimit="10" d="M712.561,737.184"/>
		</g>
		<g>
			<path opacity="0.5" d="M672.323,735.207"/>
			<path fill="none" stroke="#FFFFFF" stroke-width="6" stroke-miterlimit="10" d="M672.323,735.207"/>
		</g>
		<g>
			<line opacity="0.5" x1="749.178" y1="708.494" x2="756.373" y2="688.846"/>
			
				<line fill="none" stroke="#FFFFFF" stroke-width="4" stroke-linecap="round" stroke-linejoin="round" stroke-miterlimit="10" x1="749.178" y1="708.494" x2="756.373" y2="688.846"/>
		</g>
		<g>
			<line opacity="0.5" x1="763.16" y1="708.378" x2="756.418" y2="688.729"/>
			
				<line fill="none" stroke="#FFFFFF" stroke-width="4" stroke-linecap="round" stroke-linejoin="round" stroke-miterlimit="10" x1="763.16" y1="708.378" x2="756.418" y2="688.729"/>
		</g>
		<g>
			<path opacity="0.5" d="M749.18,708.853c0.217,3.104,3.187,5.569,6.852,5.569h0.293c3.663,0,6.631-2.466,6.85-5.569"/>
			<path fill="none" stroke="#FFFFFF" stroke-width="4" stroke-linecap="round" stroke-linejoin="round" stroke-miterlimit="10" d="
				M749.18,708.853c0.217,3.104,3.187,5.569,6.852,5.569h0.293c3.663,0,6.631-2.466,6.85-5.569"/>
		</g>
		<g>
			<line opacity="0.5" x1="665.201" y1="697.431" x2="670.841" y2="684.367"/>
			
				<line fill="none" stroke="#FFFFFF" stroke-width="3" stroke-linecap="round" stroke-linejoin="round" stroke-miterlimit="10" x1="665.201" y1="697.431" x2="670.841" y2="684.367"/>
		</g>
		<g>
			<line opacity="0.5" x1="676.161" y1="697.357" x2="670.875" y2="684.289"/>
			
				<line fill="none" stroke="#FFFFFF" stroke-width="3" stroke-linecap="round" stroke-linejoin="round" stroke-miterlimit="10" x1="676.161" y1="697.357" x2="670.875" y2="684.289"/>
		</g>
		<g>
			<path opacity="0.5" d="M665.203,697.671c0.171,2.063,2.612,4.659,5.485,4.659l0,0c2.874,0,5.315-2.597,5.485-4.659"/>
			<path fill="none" stroke="#FFFFFF" stroke-width="3" stroke-linecap="round" stroke-linejoin="round" stroke-miterlimit="10" d="
				M665.203,697.671c0.171,2.063,2.612,4.659,5.485,4.659l0,0c2.874,0,5.315-2.597,5.485-4.659"/>
		</g>
		<g>
			<line opacity="0.5" x1="727.525" y1="730.238" x2="731.4" y2="719.414"/>
			
				<line fill="none" stroke="#FFFFFF" stroke-width="2" stroke-linecap="round" stroke-linejoin="round" stroke-miterlimit="10" x1="727.525" y1="730.238" x2="731.4" y2="719.414"/>
		</g>
		<g>
			<line opacity="0.5" x1="735.057" y1="730.174" x2="731.424" y2="719.352"/>
			
				<line fill="none" stroke="#FFFFFF" stroke-width="2" stroke-linecap="round" stroke-linejoin="round" stroke-miterlimit="10" x1="735.057" y1="730.174" x2="731.424" y2="719.352"/>
		</g>
		<g>
			<path opacity="0.5" d="M727.528,730.438c0.118,1.709,1.716,3.068,3.689,3.068h0.156c1.977,0,3.575-1.359,3.69-3.068"/>
			<path fill="none" stroke="#FFFFFF" stroke-width="2" stroke-linecap="round" stroke-linejoin="round" stroke-miterlimit="10" d="
				M727.528,730.438c0.118,1.709,1.716,3.068,3.689,3.068h0.156c1.977,0,3.575-1.359,3.69-3.068"/>
		</g>
		<g opacity="0.8">
			<path opacity="0.5" d="M802.276,663.06"/>
			<path fill="none" stroke="#FFFFFF" stroke-width="7" stroke-miterlimit="10" d="M802.276,663.06"/>
		</g>
		<g opacity="0.8">
			<path opacity="0.5" d="M712.833,573.499"/>
			<path fill="none" stroke="#FFFFFF" stroke-width="7" stroke-miterlimit="10" d="M712.833,573.499"/>
		</g>
		<path opacity="0.8" d="M715.077,666.616"/>
		<path opacity="0.8" d="M674.819,621.22"/>
		<g opacity="0.8">
			<path opacity="0.5" d="M673.281,736.135"/>
			<path fill="none" stroke="#FFFFFF" stroke-width="6" stroke-miterlimit="10" d="M673.281,736.135"/>
		</g>
		<g opacity="0.8">
			<path opacity="0.5" d="M711.17,737.176"/>
			<path fill="none" stroke="#FFFFFF" stroke-width="6" stroke-miterlimit="10" d="M711.17,737.176"/>
		</g>
		<g opacity="0.8">
			<path opacity="0.5" d="M678.215,735.207"/>
			<path fill="none" stroke="#FFFFFF" stroke-width="6" stroke-miterlimit="10" d="M678.215,735.207"/>
		</g>
		<g opacity="0.8">
			<path opacity="0.5" d="M758.7,689.081"/>
			<path fill="none" stroke="#FFFFFF" stroke-width="4" stroke-linecap="round" stroke-linejoin="round" stroke-miterlimit="10" d="
				M758.7,689.081"/>
		</g>
		
			<path opacity="0.8" stroke="#FFFFFF" stroke-width="3" stroke-linecap="round" stroke-linejoin="round" stroke-miterlimit="10" d="
			M666.502,698.242"/>
		
			<path opacity="0.8" stroke="#FFFFFF" stroke-width="3" stroke-linecap="round" stroke-linejoin="round" stroke-miterlimit="10" d="
			M677.479,698.057"/>
		<g opacity="0.8">
			<path opacity="0.5" d="M732.385,720.779"/>
			<path fill="none" stroke="#FFFFFF" stroke-width="2" stroke-linecap="round" stroke-linejoin="round" stroke-miterlimit="10" d="
				M732.385,720.779"/>
		</g>
		<g opacity="0.8">
			<path opacity="0.5" d="M728.51,731.604"/>
			<path fill="none" stroke="#FFFFFF" stroke-width="2" stroke-linecap="round" stroke-linejoin="round" stroke-miterlimit="10" d="
				M728.51,731.604"/>
		</g>
		<g opacity="0.8">
			<path opacity="0.5" d="M732.408,720.717"/>
			<path fill="none" stroke="#FFFFFF" stroke-width="2" stroke-linecap="round" stroke-linejoin="round" stroke-miterlimit="10" d="
				M732.408,720.717"/>
		</g>
		<g opacity="0.8">
			<path opacity="0.5" d="M736.042,731.541"/>
			<path fill="none" stroke="#FFFFFF" stroke-width="2" stroke-linecap="round" stroke-linejoin="round" stroke-miterlimit="10" d="
				M736.042,731.541"/>
		</g>
		<path stroke="#FFFFFF" stroke-width="4" stroke-miterlimit="10" d="M715.248,734.494"/>
		<path id="XMLID_4_" stroke="#FFFFFF" stroke-width="7" stroke-linecap="round" stroke-miterlimit="10" d="M618.456,668.585"/>
		<path id="XMLID_2_" stroke="#FFFFFF" stroke-width="7" stroke-linecap="round" stroke-miterlimit="10" d="M802.94,666.348"/>
		<path id="XMLID_1_" stroke="#FFFFFF" stroke-width="7" stroke-linecap="round" stroke-miterlimit="10" d="M712.833,575.565"/>
		<polygon stroke="#FFFFFF" stroke-width="7" stroke-linecap="round" stroke-miterlimit="10" points="792.11,670.709 
			629.345,670.368 710.264,587.251 		"/>
		<path stroke="#FFFFFF" stroke-width="7" stroke-linecap="round" stroke-miterlimit="10" d="M710.264,668.585"/>
		<path stroke="#FFFFFF" stroke-width="7" stroke-linecap="round" stroke-miterlimit="10" d="M672.323,628.979"/>
		<path stroke="#FFFFFF" stroke-width="7" stroke-linecap="round" stroke-miterlimit="10" d="M749.267,627.432"/>
		<path stroke="#FFFFFF" stroke-width="7" stroke-linecap="round" stroke-miterlimit="10" d="M715.077,668.585"/>
		<path stroke="#FFFFFF" stroke-width="7" stroke-linecap="round" stroke-miterlimit="10" d="M713.399,670.709"/>
		<path stroke="#FFFFFF" stroke-width="7" stroke-linecap="round" stroke-miterlimit="10" d="M713.399,644.784"/>
		
			<line stroke="#FFFFFF" stroke-width="7" stroke-linecap="round" stroke-miterlimit="10" x1="710.277" y1="635.073" x2="710.28" y2="728.225"/>
		
			<line stroke="#FFFFFF" stroke-width="7" stroke-linecap="round" stroke-miterlimit="10" x1="673.225" y1="627.104" x2="709.971" y2="669.196"/>
		
			<line stroke="#FFFFFF" stroke-width="7" stroke-linecap="round" stroke-miterlimit="10" x1="748.198" y1="629.432" x2="709.965" y2="669.202"/>
		<path stroke="#FFFFFF" stroke-width="7" stroke-linecap="round" stroke-miterlimit="10" d="M667.852,726.697
			c-0.001,0.072-0.004,0.143-0.006,0.213c-0.003,0.072-0.005,0.143-0.005,0.215c0,5.781,2.36,11.018,6.176,14.807
			c3.816,3.789,9.088,6.133,14.911,6.133c5.548,0,11.501-1.748,15.348-5.268c3.847-3.518,5.59-7.547,6.005-12.953"/>
	</g>
	
		<line stroke="#FFFFFF" stroke-width="7" stroke-linecap="round" stroke-miterlimit="10" x1="558.408" y1="101.021" x2="675.137" y2="540.395"/>
	
		<line stroke="#FFFFFF" stroke-width="7" stroke-linecap="round" stroke-miterlimit="10" x1="862.224" y1="101.021" x2="743.496" y2="540.395"/>
	
		<line stroke="#FFFFFF" stroke-width="7" stroke-linecap="round" stroke-miterlimit="10" x1="802.696" y1="574.574" x2="1125.338" y2="252.931"/>
	
		<line stroke="#FFFFFF" stroke-width="7" stroke-linecap="round" stroke-miterlimit="10" x1="836.875" y1="633.774" x2="1277.246" y2="516.042"/>
	
		<line stroke="#FFFFFF" stroke-width="7" stroke-linecap="round" stroke-miterlimit="10" x1="836.875" y1="702.133" x2="1277.246" y2="819.859"/>
	
		<line stroke="#FFFFFF" stroke-width="7" stroke-linecap="round" stroke-miterlimit="10" x1="802.696" y1="761.333" x2="1125.338" y2="1082.973"/>
	
		<line stroke="#FFFFFF" stroke-width="7" stroke-linecap="round" stroke-miterlimit="10" x1="743.496" y1="795.512" x2="862.224" y2="1234.881"/>
	
		<line stroke="#FFFFFF" stroke-width="7" stroke-linecap="round" stroke-miterlimit="10" x1="675.137" y1="795.512" x2="558.408" y2="1234.881"/>
	
		<line stroke="#FFFFFF" stroke-width="7" stroke-linecap="round" stroke-miterlimit="10" x1="615.937" y1="761.333" x2="295.294" y2="1082.973"/>
	
		<line stroke="#FFFFFF" stroke-width="7" stroke-linecap="round" stroke-miterlimit="10" x1="581.757" y1="702.133" x2="143.388" y2="819.859"/>
	
		<line stroke="#FFFFFF" stroke-width="7" stroke-linecap="round" stroke-miterlimit="10" x1="615.937" y1="574.574" x2="295.294" y2="252.93"/>
	
		<line stroke="#FFFFFF" stroke-width="7" stroke-linecap="round" stroke-miterlimit="10" x1="581.757" y1="633.774" x2="143.388" y2="516.042"/>
</g>
<g id="Layer_5">
	<circle stroke="#FFFFFF" stroke-width="6" stroke-miterlimit="10" cx="560.683" cy="109.584" r="21.26"/>
	<circle stroke="#FFFFFF" stroke-width="6" stroke-miterlimit="10" cx="859.224" cy="109.584" r="21.26"/>
	<circle stroke="#FFFFFF" stroke-width="6" stroke-miterlimit="10" cx="1120.26" cy="260.19" r="21.26"/>
	<circle stroke="#FFFFFF" stroke-width="6" stroke-miterlimit="10" cx="1267.816" cy="517.874" r="21.26"/>
	<circle stroke="#FFFFFF" stroke-width="6" stroke-miterlimit="10" cx="153.729" cy="517.413" r="21.26"/>
	<circle stroke="#FFFFFF" stroke-width="6" stroke-miterlimit="10" cx="302.26" cy="260.19" r="21.26"/>
	<circle stroke="#FFFFFF" stroke-width="6" stroke-miterlimit="10" cx="561.683" cy="1225.535" r="21.26"/>
	<circle stroke="#FFFFFF" stroke-width="6" stroke-miterlimit="10" cx="859.224" cy="1226.535" r="21.26"/>
	<circle stroke="#FFFFFF" stroke-width="6" stroke-miterlimit="10" cx="1119.26" cy="1075.93" r="21.26"/>
	<circle stroke="#FFFFFF" stroke-width="6" stroke-miterlimit="10" cx="1267.816" cy="818.246" r="21.26"/>
	<circle stroke="#FFFFFF" stroke-width="6" stroke-miterlimit="10" cx="152.729" cy="817.707" r="21.26"/>
	<circle stroke="#FFFFFF" stroke-width="6" stroke-miterlimit="10" cx="303.26" cy="1075.929" r="21.26"/>
</g>
<g id="Layer_6">
	<line stroke="#FFFFFF" stroke-width="9" stroke-miterlimit="10" x1="670.033" y1="143.283" x2="710.24" y2="207.438"/>
	<line stroke="#FFFFFF" stroke-width="9" stroke-miterlimit="10" x1="710.24" y1="143.283" x2="670.033" y2="207.438"/>
	<line stroke="#FFFFFF" stroke-width="9" stroke-miterlimit="10" x1="660.123" y1="142.283" x2="758.198" y2="142.844"/>
	<line stroke="#FFFFFF" stroke-width="9" stroke-miterlimit="10" x1="661.006" y1="207.438" x2="758.496" y2="207.438"/>
	<line stroke="#FFFFFF" stroke-width="9" stroke-miterlimit="10" x1="724.287" y1="143.283" x2="724.982" y2="207.438"/>
	<line stroke="#FFFFFF" stroke-width="9" stroke-miterlimit="10" x1="744.082" y1="142.844" x2="744.082" y2="207.438"/>
</g>
</svg>
