<?xml version="1.0" encoding="utf-8"?>
<!-- Generator: Adobe Illustrator 16.0.0, SVG Export Plug-In . SVG Version: 6.00 Build 0)  -->
<!DOCTYPE svg PUBLIC "-//W3C//DTD SVG 1.1//EN" "http://www.w3.org/Graphics/SVG/1.1/DTD/svg11.dtd">
<svg version="1.1" id="Layer_1" xmlns="http://www.w3.org/2000/svg" xmlns:xlink="http://www.w3.org/1999/xlink" x="0px" y="0px"
	 width="1836.691px" height="1443.518px" viewBox="26.986 -0.215 1836.691 1443.518"
	 enable-background="new 26.986 -0.215 1836.691 1443.518" xml:space="preserve">
<g id="Layer_6">
	
		<polyline fill="none" stroke="#FFFFFF" stroke-width="49.3478" stroke-linecap="square" stroke-linejoin="round" stroke-miterlimit="10" points="
		1838.789,24.674 1826.575,1418.628 51.744,1412.583 	"/>
</g>
<g id="Layer_4">
	
		<line fill="none" stroke="#C5C09D" stroke-width="49.0677" stroke-linecap="square" stroke-linejoin="round" stroke-miterlimit="10" stroke-opacity="0.8" x1="370.892" y1="515.167" x2="370.892" y2="975.39"/>
	
		<line fill="none" stroke="#000000" stroke-width="5.8778" stroke-linecap="square" stroke-linejoin="round" stroke-miterlimit="10" x1="324.719" y1="492.478" x2="1504.601" y2="492.85"/>
	
		<line fill="none" stroke="#000000" stroke-width="5.8778" stroke-linecap="square" stroke-linejoin="round" stroke-miterlimit="10" x1="1515.956" y1="505.873" x2="1515.956" y2="989.06"/>
	
		<line fill="none" stroke="#000000" stroke-width="5.8778" stroke-linecap="square" stroke-linejoin="round" stroke-miterlimit="10" x1="1501.763" y1="996.874" x2="322.083" y2="997.229"/>
	
		<line fill="none" stroke="#000000" stroke-width="5.8778" stroke-linecap="square" stroke-linejoin="round" stroke-miterlimit="10" x1="310.053" y1="987.109" x2="310.525" y2="501.16"/>
	
		<ellipse fill="none" stroke="#000000" stroke-width="5.8778" stroke-linecap="square" stroke-linejoin="round" stroke-miterlimit="10" cx="310.527" cy="492.478" rx="9.462" ry="8.682"/>
	
		<ellipse fill="none" stroke="#000000" stroke-width="5.8778" stroke-linecap="square" stroke-linejoin="round" stroke-miterlimit="10" cx="310.053" cy="997.23" rx="9.463" ry="8.682"/>
	
		<ellipse fill="none" stroke="#000000" stroke-width="5.8778" stroke-linecap="square" stroke-linejoin="round" stroke-miterlimit="10" cx="1516.903" cy="492.111" rx="9.461" ry="8.682"/>
	
		<ellipse fill="none" stroke="#000000" stroke-width="5.8778" stroke-linecap="square" stroke-linejoin="round" stroke-miterlimit="10" cx="1514.952" cy="997.742" rx="9.461" ry="8.682"/>
</g>
<g id="Layer_3">
	
		<line fill="none" stroke="#000000" stroke-width="24.4008" stroke-linecap="square" stroke-linejoin="round" stroke-miterlimit="10" x1="964.956" y1="628.798" x2="775.924" y2="628.8"/>
	
		<polyline fill="none" stroke="#000000" stroke-width="24.4008" stroke-linecap="square" stroke-linejoin="round" stroke-miterlimit="10" points="
		822.052,866.024 894.824,866.024 894.824,866.722 894.545,629.13 	"/>
	<g>
		<g>
			<path d="M506.424,643.35l100.788,104.248L506.424,850.553L405.635,747.597L506.424,643.35 M506.424,607.743L371.103,747.709
				l135.321,138.23l135.32-138.23L506.424,607.743L506.424,607.743z"/>
		</g>
		
			<rect x="664.517" y="842.756" fill="none" stroke="#000000" stroke-width="10.4435" stroke-linecap="square" stroke-linejoin="round" stroke-miterlimit="10" width="18.392" height="31.309"/>
		
			<path fill="none" stroke="#000000" stroke-width="22.9353" stroke-linecap="square" stroke-linejoin="round" stroke-miterlimit="10" d="
			M506.424,875.141v-122.74V875.141z"/>
	</g>
	
		<polyline fill="none" stroke="#000000" stroke-width="24.4008" stroke-linecap="square" stroke-linejoin="round" stroke-miterlimit="10" points="
		1324.909,865.026 1324.907,626.371 1241.261,751.535 1241.261,751.535 1157.614,626.371 1157.614,865.026 	"/>
	
		<rect x="1010.815" y="841.137" fill="none" stroke="#000000" stroke-width="10.4435" stroke-linecap="square" stroke-linejoin="round" stroke-miterlimit="10" width="18.391" height="31.309"/>
	
		<rect x="1434.349" y="840.809" fill="none" stroke="#000000" stroke-width="10.4435" stroke-linecap="square" stroke-linejoin="round" stroke-miterlimit="10" width="18.395" height="31.231"/>
	<g id="Layer_5">
	</g>
</g>
</svg>
